<?xml version="1.0" encoding="UTF-8"?>
<svg version="1.1" xmlns="http://www.w3.org/2000/svg" width="400" height="400">
<path d="M0 0 C60.39 0 120.78 0 183 0 C183 107.58 183 215.16 183 326 C122.61 326 62.22 326 0 326 C0 218.42 0 110.84 0 0 Z " fill="#3F3F3F" transform="translate(109,37)"/>
<path d="M0 0 C0.72030396 -0.00175232 1.44060791 -0.00350464 2.18273926 -0.00531006 C4.57497534 -0.00972835 6.9671381 -0.00679068 9.359375 -0.00341797 C11.01464858 -0.00409101 12.66992207 -0.00506105 14.32519531 -0.00631714 C17.79883767 -0.00779408 21.27245437 -0.00563968 24.74609375 -0.00097656 C29.20869998 0.00472073 33.67124608 0.0014417 38.1338501 -0.00454903 C41.5532273 -0.00815474 44.97259015 -0.00701601 48.39196777 -0.00442123 C50.03788256 -0.00375199 51.68379863 -0.00458029 53.32971191 -0.00690079 C55.62609331 -0.00942749 57.92237599 -0.0055865 60.21875 0 C61.52811523 0.00079559 62.83748047 0.00159119 64.18652344 0.00241089 C67.109375 0.12939453 67.109375 0.12939453 68.109375 1.12939453 C68.20858363 3.0570127 68.23736865 4.98828807 68.23876953 6.91845703 C68.24192169 8.15644043 68.24507385 9.39442383 68.24832153 10.66992188 C68.24653175 12.03141312 68.2444808 13.39290404 68.2421875 14.75439453 C68.24286059 16.14062517 68.24383066 17.5268557 68.24508667 18.91308594 C68.2465634 21.82178875 68.2444099 24.7304609 68.23974609 27.63916016 C68.23404881 31.37536052 68.23732794 35.11148905 68.24331856 38.84768677 C68.24692485 41.71118719 68.24578527 44.57467046 68.24319077 47.43817139 C68.24252168 48.81614185 68.24334926 50.19411385 68.24567032 51.57208252 C68.24819792 53.49483207 68.24366524 55.41758705 68.23876953 57.34033203 C68.23797394 58.43651855 68.23717834 59.53270508 68.23635864 60.66210938 C68.109375 63.12939453 68.109375 63.12939453 67.109375 64.12939453 C64.81426004 64.22910608 62.51602951 64.2573932 60.21875 64.25878906 C59.49844604 64.26054138 58.77814209 64.2622937 58.03601074 64.26409912 C55.64377466 64.26851742 53.2516119 64.26557974 50.859375 64.26220703 C49.20410142 64.26288008 47.54882793 64.26385011 45.89355469 64.2651062 C42.41991233 64.26658314 38.94629563 64.26442874 35.47265625 64.25976562 C31.01005002 64.25406833 26.54750392 64.25734736 22.0848999 64.26333809 C18.6655227 64.2669438 15.24615985 64.26580507 11.82678223 64.2632103 C10.18086744 64.26254106 8.53495137 64.26336935 6.88903809 64.26568985 C4.59265669 64.26821655 2.29637401 64.26437557 0 64.25878906 C-1.96404785 64.25759567 -1.96404785 64.25759567 -3.96777344 64.25637817 C-6.890625 64.12939453 -6.890625 64.12939453 -7.890625 63.12939453 C-7.98983363 61.20177636 -8.01861865 59.27050099 -8.02001953 57.34033203 C-8.02317169 56.10234863 -8.02632385 54.86436523 -8.02957153 53.58886719 C-8.02778175 52.22737594 -8.0257308 50.86588502 -8.0234375 49.50439453 C-8.02411059 48.11816389 -8.02508066 46.73193336 -8.02633667 45.34570312 C-8.0278134 42.43700031 -8.0256599 39.52832816 -8.02099609 36.61962891 C-8.01529881 32.88342855 -8.01857794 29.14730002 -8.02456856 25.41110229 C-8.02817485 22.54760187 -8.02703527 19.6841186 -8.02444077 16.82061768 C-8.02377168 15.44264721 -8.02459926 14.06467521 -8.02692032 12.68670654 C-8.02944792 10.76395699 -8.02491524 8.84120201 -8.02001953 6.91845703 C-8.01922394 5.82227051 -8.01842834 4.72608398 -8.01760864 3.59667969 C-7.76008852 -1.40692201 -4.27837107 0.00259961 0 0 Z " fill="#1B1717" transform="translate(214.890625,130.87060546875)"/>
<path d="M0 0 C0.72030396 -0.00175232 1.44060791 -0.00350464 2.18273926 -0.00531006 C4.57497534 -0.00972835 6.9671381 -0.00679068 9.359375 -0.00341797 C11.01464858 -0.00409101 12.66992207 -0.00506105 14.32519531 -0.00631714 C17.79883767 -0.00779408 21.27245437 -0.00563968 24.74609375 -0.00097656 C29.20869998 0.00472073 33.67124608 0.0014417 38.1338501 -0.00454903 C41.5532273 -0.00815474 44.97259015 -0.00701601 48.39196777 -0.00442123 C50.03788256 -0.00375199 51.68379863 -0.00458029 53.32971191 -0.00690079 C55.62609331 -0.00942749 57.92237599 -0.0055865 60.21875 0 C61.52811523 0.00079559 62.83748047 0.00159119 64.18652344 0.00241089 C67.109375 0.12939453 67.109375 0.12939453 68.109375 1.12939453 C68.20858363 3.0570127 68.23736865 4.98828807 68.23876953 6.91845703 C68.24192169 8.15644043 68.24507385 9.39442383 68.24832153 10.66992188 C68.24653175 12.03141312 68.2444808 13.39290404 68.2421875 14.75439453 C68.24286059 16.14062517 68.24383066 17.5268557 68.24508667 18.91308594 C68.2465634 21.82178875 68.2444099 24.7304609 68.23974609 27.63916016 C68.23404881 31.37536052 68.23732794 35.11148905 68.24331856 38.84768677 C68.24692485 41.71118719 68.24578527 44.57467046 68.24319077 47.43817139 C68.24252168 48.81614185 68.24334926 50.19411385 68.24567032 51.57208252 C68.24819792 53.49483207 68.24366524 55.41758705 68.23876953 57.34033203 C68.23797394 58.43651855 68.23717834 59.53270508 68.23635864 60.66210938 C68.109375 63.12939453 68.109375 63.12939453 67.109375 64.12939453 C64.81426004 64.22910608 62.51602951 64.2573932 60.21875 64.25878906 C59.49844604 64.26054138 58.77814209 64.2622937 58.03601074 64.26409912 C55.64377466 64.26851742 53.2516119 64.26557974 50.859375 64.26220703 C49.20410142 64.26288008 47.54882793 64.26385011 45.89355469 64.2651062 C42.41991233 64.26658314 38.94629563 64.26442874 35.47265625 64.25976562 C31.01005002 64.25406833 26.54750392 64.25734736 22.0848999 64.26333809 C18.6655227 64.2669438 15.24615985 64.26580507 11.82678223 64.2632103 C10.18086744 64.26254106 8.53495137 64.26336935 6.88903809 64.26568985 C4.59265669 64.26821655 2.29637401 64.26437557 0 64.25878906 C-1.96404785 64.25759567 -1.96404785 64.25759567 -3.96777344 64.25637817 C-6.890625 64.12939453 -6.890625 64.12939453 -7.890625 63.12939453 C-7.98983363 61.20177636 -8.01861865 59.27050099 -8.02001953 57.34033203 C-8.02317169 56.10234863 -8.02632385 54.86436523 -8.02957153 53.58886719 C-8.02778175 52.22737594 -8.0257308 50.86588502 -8.0234375 49.50439453 C-8.02411059 48.11816389 -8.02508066 46.73193336 -8.02633667 45.34570312 C-8.0278134 42.43700031 -8.0256599 39.52832816 -8.02099609 36.61962891 C-8.01529881 32.88342855 -8.01857794 29.14730002 -8.02456856 25.41110229 C-8.02817485 22.54760187 -8.02703527 19.6841186 -8.02444077 16.82061768 C-8.02377168 15.44264721 -8.02459926 14.06467521 -8.02692032 12.68670654 C-8.02944792 10.76395699 -8.02491524 8.84120201 -8.02001953 6.91845703 C-8.01922394 5.82227051 -8.01842834 4.72608398 -8.01760864 3.59667969 C-7.76008852 -1.40692201 -4.27837107 0.00259961 0 0 Z " fill="#1B1717" transform="translate(121.890625,130.87060546875)"/>
<path d="M0 0 C0.75603516 -0.020625 1.51207031 -0.04125 2.29101562 -0.0625 C8.42438875 -0.10505593 12.5647169 1.17967346 17.1875 5.4375 C17.72375 6.035625 18.26 6.63375 18.8125 7.25 C19.555 6.46625 20.2975 5.6825 21.0625 4.875 C25.71999083 0.4292133 29.04689026 -0.14280757 35.34375 -0.00390625 C40.80239491 0.55750501 44.24663594 3.27269009 47.8125 7.25 C48.4725 4.94 49.1325 2.63 49.8125 0.25 C53.1125 0.25 56.4125 0.25 59.8125 0.25 C60.8025 2.725 60.8025 2.725 61.8125 5.25 C62.245625 4.425 62.67875 3.6 63.125 2.75 C66.3375923 -0.23845795 67.3124469 -0.08984912 71.5625 -0.0625 C73.31376074 0.01772791 75.06465533 0.11439136 76.8125 0.25 C77.55859375 1.953125 77.55859375 1.953125 77.8125 4.25 C76.16015625 6.609375 76.16015625 6.609375 73.875 9 C73.12347656 9.79921875 72.37195313 10.5984375 71.59765625 11.421875 C71.00855469 12.02515625 70.41945313 12.6284375 69.8125 13.25 C70.8025 14.9 71.7925 16.55 72.8125 18.25 C72.92464844 17.39728516 72.92464844 17.39728516 73.0390625 16.52734375 C74.08056169 10.41108872 76.07601648 6.34059941 80.8125 2.25 C85.26103647 -0.50735732 89.73192124 -0.27252788 94.8125 0.25 C99.07847716 1.82999154 101.7876133 3.87608792 104.8125 7.25 C105.4725 4.94 106.1325 2.63 106.8125 0.25 C109.91808674 -0.18478214 112.72211797 -0.34797636 115.8125 0.25 C118.3123841 2.2650581 120.06782743 4.56799353 121.8125 7.25 C122.4725 4.94 123.1325 2.63 123.8125 0.25 C125.45824566 0.22311849 127.10411413 0.20365877 128.75 0.1875 C129.66652344 0.17589844 130.58304688 0.16429687 131.52734375 0.15234375 C133.8125 0.25 133.8125 0.25 134.8125 1.25 C134.91243532 3.3105531 134.94330906 5.3745259 134.9453125 7.4375 C134.94660156 8.69304687 134.94789063 9.94859375 134.94921875 11.2421875 C134.94712402 11.89928711 134.9450293 12.55638672 134.94287109 13.23339844 C134.93752234 15.24161335 134.94281691 17.24960459 134.94921875 19.2578125 C134.94728516 21.14113281 134.94728516 21.14113281 134.9453125 23.0625 C134.94418457 24.22394531 134.94305664 25.38539063 134.94189453 26.58203125 C134.8125 29.25 134.8125 29.25 133.8125 30.25 C130.7110788 30.82457908 127.90290222 30.90275822 124.8125 30.25 C122.31759932 28.22983751 120.5569718 25.93169783 118.8125 23.25 C117.8225 26.715 117.8225 26.715 116.8125 30.25 C113.5125 30.25 110.2125 30.25 106.8125 30.25 C105.8225 26.785 105.8225 26.785 104.8125 23.25 C104.10673828 23.88228516 104.10673828 23.88228516 103.38671875 24.52734375 C102.76410156 25.07519531 102.14148438 25.62304688 101.5 26.1875 C100.88511719 26.73277344 100.27023438 27.27804687 99.63671875 27.83984375 C95.34293816 31.1590189 89.98086514 30.73077815 84.8125 30.25 C81.1875 28.75 81.1875 28.75 78.8125 27.25 C78.3175 28.735 78.3175 28.735 77.8125 30.25 C75.87622231 30.35807131 73.93822244 30.4356225 72 30.5 C70.38158203 30.56960938 70.38158203 30.56960938 68.73046875 30.640625 C65.8125 30.25 65.8125 30.25 63.92578125 28.234375 C63.55839844 27.57953125 63.19101563 26.9246875 62.8125 26.25 C62.42449219 26.90484375 62.03648437 27.5596875 61.63671875 28.234375 C59.8125 30.25 59.8125 30.25 57.33203125 30.640625 C55.99205078 30.57101562 55.99205078 30.57101562 54.625 30.5 C53.72394531 30.46390625 52.82289063 30.4278125 51.89453125 30.390625 C50.86392578 30.32101562 50.86392578 30.32101562 49.8125 30.25 C49.1525 27.94 48.4925 25.63 47.8125 23.25 C47.34199219 23.67152344 46.87148437 24.09304688 46.38671875 24.52734375 C45.76410156 25.07519531 45.14148438 25.62304688 44.5 26.1875 C43.88511719 26.73277344 43.27023438 27.27804687 42.63671875 27.83984375 C38.34531005 31.15718538 32.9759923 30.82198018 27.8125 30.25 C23.53892083 28.71975737 20.02577732 26.28597629 17.8125 22.25 C17.8125 21.26 17.8125 20.27 17.8125 19.25 C17.1525 19.58 16.4925 19.91 15.8125 20.25 C16.2765625 21.36375 16.2765625 21.36375 16.75 22.5 C17.6252893 24.76545467 18.38622402 26.86285449 18.8125 29.25 C17.07400372 30.98849628 14.7338363 30.42216296 12.375 30.4375 C10.89193359 30.45876953 10.89193359 30.45876953 9.37890625 30.48046875 C6.8125 30.25 6.8125 30.25 4.8125 28.25 C3.8225 28.91 2.8325 29.57 1.8125 30.25 C-0.6328125 30.48046875 -0.6328125 30.48046875 -3.3125 30.4375 C-4.20195312 30.43105469 -5.09140625 30.42460937 -6.0078125 30.41796875 C-8.1875 30.25 -8.1875 30.25 -9.1875 29.25 C-9.28743532 27.1894469 -9.31830906 25.1254741 -9.3203125 23.0625 C-9.32160156 21.80695313 -9.32289062 20.55140625 -9.32421875 19.2578125 C-9.32212402 18.60071289 -9.3200293 17.94361328 -9.31787109 17.26660156 C-9.31252234 15.25838665 -9.31781691 13.25039541 -9.32421875 11.2421875 C-9.32292969 9.98664063 -9.32164063 8.73109375 -9.3203125 7.4375 C-9.31862061 5.69533203 -9.31862061 5.69533203 -9.31689453 3.91796875 C-9.04970942 -1.59108579 -4.41875526 0.02938491 0 0 Z " fill="#050306" transform="translate(137.1875,314.75)"/>
<path d="M0 0 C40.26 0 80.52 0 122 0 C122 7.26 122 14.52 122 22 C81.74 22 41.48 22 0 22 C0 14.74 0 7.48 0 0 Z " fill="#FFFFFF" transform="translate(141,250)"/>
<path d="M0 0 C23.76 0 47.52 0 72 0 C66 7 66 7 62.01416016 7.88647461 C60.52299746 7.9268273 59.03050632 7.93044842 57.5390625 7.90234375 C56.3532106 7.92078087 56.3532106 7.92078087 55.1434021 7.93959045 C52.63631071 7.97120078 50.13218035 7.95508157 47.625 7.9375 C45.91794155 7.95061627 44.21090408 7.96685978 42.50390625 7.98632812 C38.33530971 8.02707816 34.1686994 8.02505152 30 8 C29.67 9.65 29.34 11.3 29 13 C39.89 13.495 39.89 13.495 51 14 C49 19 49 19 47 20 C47.66 20.33 48.32 20.66 49 21 C49 21.66 49 22.32 49 23 C48.401875 23.20625 47.80375 23.4125 47.1875 23.625 C44.18981233 25.50926082 43.38638224 27.81132084 42 31 C43.96535717 33.41122368 43.96535717 33.41122368 47.6953125 33.1953125 C49.17200108 33.182009 50.64862358 33.15814835 52.125 33.125 C53.25615234 33.11146484 53.25615234 33.11146484 54.41015625 33.09765625 C56.27357254 33.0740687 58.13682593 33.03819719 60 33 C61.2380014 36.57644848 60.74926071 39.33694766 60 43 C57.60458732 43.19585135 55.20907226 43.38192107 52.8125 43.5625 C51.80219727 43.64661133 51.80219727 43.64661133 50.77148438 43.73242188 C46.982869 44.00963763 43.68172206 43.96511161 40 43 C40.66 42.67 41.32 42.34 42 42 C41.835 41.401875 41.67 40.80375 41.5 40.1875 C41 38 41 38 41 35 C39.41727399 33.41727399 37.61965997 33.65264253 35.4375 33.4375 C34.61121094 33.35371094 33.78492188 33.26992187 32.93359375 33.18359375 C31.97646484 33.09271484 31.97646484 33.09271484 31 33 C30.31292445 30.50935112 30 28.62113708 30 26 C29.34 25.01 28.68 24.02 28 23 C24.04 23.33 20.08 23.66 16 24 C16.33 25.32 16.66 26.64 17 28 C16.01 28.33 15.02 28.66 14 29 C14.33 29.99 14.66 30.98 15 32 C12.36 32.33 9.72 32.66 7 33 C7 26.73 7 20.46 7 14 C10.02734375 13.8046875 13.0546875 13.609375 16.08203125 13.4140625 C19.18626186 13.18804267 19.18626186 13.18804267 22 11 C21.67 10.01 21.34 9.02 21 8 C19.98679688 8.00902344 18.97359375 8.01804688 17.9296875 8.02734375 C16.57808653 7.9991854 15.22652402 7.9691368 13.875 7.9375 C12.87726563 7.95393555 12.87726563 7.95393555 11.859375 7.97070312 C9.8671875 7.90234375 9.8671875 7.90234375 6 7 C4.02 4.69 2.04 2.38 0 0 Z " fill="#2D2727" transform="translate(209,133)"/>
<path d="M0 0 C23.76 0 47.52 0 72 0 C66 7 66 7 62.01416016 7.88647461 C60.52299746 7.9268273 59.03050632 7.93044842 57.5390625 7.90234375 C56.3532106 7.92078087 56.3532106 7.92078087 55.1434021 7.93959045 C52.63631071 7.97120078 50.13218035 7.95508157 47.625 7.9375 C45.91794155 7.95061627 44.21090408 7.96685978 42.50390625 7.98632812 C38.33530971 8.02707816 34.1686994 8.02505152 30 8 C29.67 9.65 29.34 11.3 29 13 C39.89 13.495 39.89 13.495 51 14 C49 19 49 19 47 20 C47.66 20.33 48.32 20.66 49 21 C49 21.66 49 22.32 49 23 C48.401875 23.20625 47.80375 23.4125 47.1875 23.625 C44.18981233 25.50926082 43.38638224 27.81132084 42 31 C43.96535717 33.41122368 43.96535717 33.41122368 47.6953125 33.1953125 C49.17200108 33.182009 50.64862358 33.15814835 52.125 33.125 C53.25615234 33.11146484 53.25615234 33.11146484 54.41015625 33.09765625 C56.27357254 33.0740687 58.13682593 33.03819719 60 33 C61.2380014 36.57644848 60.74926071 39.33694766 60 43 C57.60458732 43.19585135 55.20907226 43.38192107 52.8125 43.5625 C51.80219727 43.64661133 51.80219727 43.64661133 50.77148438 43.73242188 C46.982869 44.00963763 43.68172206 43.96511161 40 43 C40.66 42.67 41.32 42.34 42 42 C41.835 41.401875 41.67 40.80375 41.5 40.1875 C41 38 41 38 41 35 C39.41727399 33.41727399 37.61965997 33.65264253 35.4375 33.4375 C34.61121094 33.35371094 33.78492188 33.26992187 32.93359375 33.18359375 C31.97646484 33.09271484 31.97646484 33.09271484 31 33 C30.31292445 30.50935112 30 28.62113708 30 26 C29.34 25.01 28.68 24.02 28 23 C24.04 23.33 20.08 23.66 16 24 C16.33 25.32 16.66 26.64 17 28 C16.01 28.33 15.02 28.66 14 29 C14.33 29.99 14.66 30.98 15 32 C12.36 32.33 9.72 32.66 7 33 C7 26.73 7 20.46 7 14 C10.02734375 13.8046875 13.0546875 13.609375 16.08203125 13.4140625 C19.18626186 13.18804267 19.18626186 13.18804267 22 11 C21.67 10.01 21.34 9.02 21 8 C19.98679688 8.00902344 18.97359375 8.01804688 17.9296875 8.02734375 C16.57808653 7.9991854 15.22652402 7.9691368 13.875 7.9375 C12.87726563 7.95393555 12.87726563 7.95393555 11.859375 7.97070312 C9.8671875 7.90234375 9.8671875 7.90234375 6 7 C4.02 4.69 2.04 2.38 0 0 Z " fill="#2D2727" transform="translate(116,133)"/>
<path d="M0 0 C5.63956587 2.32807702 9.49077744 6.10835644 13 11 C15.09161911 17.27485734 14.70164399 23.25425882 12.0625 29.3125 C9.16135602 34.50187023 5.63665139 37.17610793 0 39 C-4.67942776 39.85571084 -7.90348247 39.53750859 -12.1875 37.4375 C-17.57406895 32.76914025 -21.5765174 28.93520107 -22.203125 21.6328125 C-22.30272768 16.30406892 -22.18793782 12.48303755 -19 8 C-12.90690784 1.99413002 -8.76635579 -1.23233117 0 0 Z " fill="#D23737" transform="translate(267,44)"/>
<path d="M0 0 C3.94967406 2.08255542 8.23969854 4.60983074 9.65234375 9.05078125 C10.17633681 13.20683576 10.266253 15.43554364 8.4375 19.3125 C5.16888178 22.91636112 2.56992788 25.58981607 -2.3984375 26.3828125 C-6.71423597 26.57721784 -9.49212192 26.24008782 -13.4375 24.375 C-17.34153805 20.75662327 -18.77858855 17.77129163 -19.4375 12.5 C-18.79650912 7.37207299 -16.7036655 4.50323426 -12.875 1.125 C-8.56293903 -0.56232821 -4.56672682 -0.67329947 0 0 Z " fill="#8118AD" transform="translate(232,317)"/>
<path d="M0 0 C3.94967406 2.08255542 8.23969854 4.60983074 9.65234375 9.05078125 C10.17633681 13.20683576 10.266253 15.43554364 8.4375 19.3125 C5.16888178 22.91636112 2.56992788 25.58981607 -2.3984375 26.3828125 C-6.71423597 26.57721784 -9.49212192 26.24008782 -13.4375 24.375 C-16.8735993 21.1903226 -18.88938541 18.60866075 -19.09375 13.7890625 C-18.75902223 8.75140959 -17.78489163 5.56861211 -14 2 C-9.52305867 -0.70143795 -5.09171049 -0.66763344 0 0 Z " fill="#8118AD" transform="translate(175,317)"/>
<path d="M0 0 C2.68125 -0.103125 5.3625 -0.20625 8.125 -0.3125 C9.37434326 -0.38078003 9.37434326 -0.38078003 10.64892578 -0.45043945 C14.61073505 -0.52370126 17.30547766 -0.23349891 20.53125 2.1875 C23 5 23 5 23.5859375 7.67578125 C23.51632813 8.54589844 23.44671875 9.41601562 23.375 10.3125 C23.32085937 11.19550781 23.26671875 12.07851563 23.2109375 12.98828125 C23.14132813 13.65214844 23.07171875 14.31601562 23 15 C21.02 15.99 21.02 15.99 19 17 C20.65 19.97 22.3 22.94 24 26 C18.02718717 26.43917741 18.02718717 26.43917741 15 26 C12.5625 23.5625 12.5625 23.5625 11 21 C10.34 20.67 9.68 20.34 9 20 C9 21.98 9 23.96 9 26 C6.03 26 3.06 26 0 26 C0 17.42 0 8.84 0 0 Z " fill="#8318AF" transform="translate(130,317)"/>
<path d="M0 0 C0.72030396 -0.00175232 1.44060791 -0.00350464 2.18273926 -0.00531006 C4.57497534 -0.00972835 6.9671381 -0.00679068 9.359375 -0.00341797 C11.01464858 -0.00409101 12.66992207 -0.00506105 14.32519531 -0.00631714 C17.79883767 -0.00779408 21.27245437 -0.00563968 24.74609375 -0.00097656 C29.20869998 0.00472073 33.67124608 0.0014417 38.1338501 -0.00454903 C41.5532273 -0.00815474 44.97259015 -0.00701601 48.39196777 -0.00442123 C50.03788256 -0.00375199 51.68379863 -0.00458029 53.32971191 -0.00690079 C55.62609331 -0.00942749 57.92237599 -0.0055865 60.21875 0 C61.52811523 0.00079559 62.83748047 0.00159119 64.18652344 0.00241089 C67.109375 0.12939453 67.109375 0.12939453 68.109375 1.12939453 C68.20858363 3.0570127 68.23736865 4.98828807 68.23876953 6.91845703 C68.24192169 8.15644043 68.24507385 9.39442383 68.24832153 10.66992188 C68.24653175 12.03141312 68.2444808 13.39290404 68.2421875 14.75439453 C68.24286059 16.14062517 68.24383066 17.5268557 68.24508667 18.91308594 C68.2465634 21.82178875 68.2444099 24.7304609 68.23974609 27.63916016 C68.23404881 31.37536052 68.23732794 35.11148905 68.24331856 38.84768677 C68.24692485 41.71118719 68.24578527 44.57467046 68.24319077 47.43817139 C68.24252168 48.81614185 68.24334926 50.19411385 68.24567032 51.57208252 C68.24819792 53.49483207 68.24366524 55.41758705 68.23876953 57.34033203 C68.23797394 58.43651855 68.23717834 59.53270508 68.23635864 60.66210938 C68.109375 63.12939453 68.109375 63.12939453 67.109375 64.12939453 C64.81426004 64.22910608 62.51602951 64.2573932 60.21875 64.25878906 C59.49844604 64.26054138 58.77814209 64.2622937 58.03601074 64.26409912 C55.64377466 64.26851742 53.2516119 64.26557974 50.859375 64.26220703 C49.20410142 64.26288008 47.54882793 64.26385011 45.89355469 64.2651062 C42.41991233 64.26658314 38.94629563 64.26442874 35.47265625 64.25976562 C31.01005002 64.25406833 26.54750392 64.25734736 22.0848999 64.26333809 C18.6655227 64.2669438 15.24615985 64.26580507 11.82678223 64.2632103 C10.18086744 64.26254106 8.53495137 64.26336935 6.88903809 64.26568985 C4.59265669 64.26821655 2.29637401 64.26437557 0 64.25878906 C-1.96404785 64.25759567 -1.96404785 64.25759567 -3.96777344 64.25637817 C-6.890625 64.12939453 -6.890625 64.12939453 -7.890625 63.12939453 C-7.98983363 61.20177636 -8.01861865 59.27050099 -8.02001953 57.34033203 C-8.02317169 56.10234863 -8.02632385 54.86436523 -8.02957153 53.58886719 C-8.02778175 52.22737594 -8.0257308 50.86588502 -8.0234375 49.50439453 C-8.02411059 48.11816389 -8.02508066 46.73193336 -8.02633667 45.34570312 C-8.0278134 42.43700031 -8.0256599 39.52832816 -8.02099609 36.61962891 C-8.01529881 32.88342855 -8.01857794 29.14730002 -8.02456856 25.41110229 C-8.02817485 22.54760187 -8.02703527 19.6841186 -8.02444077 16.82061768 C-8.02377168 15.44264721 -8.02459926 14.06467521 -8.02692032 12.68670654 C-8.02944792 10.76395699 -8.02491524 8.84120201 -8.02001953 6.91845703 C-8.01922394 5.82227051 -8.01842834 4.72608398 -8.01760864 3.59667969 C-7.76008852 -1.40692201 -4.27837107 0.00259961 0 0 Z M-5.890625 2.12939453 C-5.890625 21.92939453 -5.890625 41.72939453 -5.890625 62.12939453 C17.869375 62.12939453 41.629375 62.12939453 66.109375 62.12939453 C66.109375 42.32939453 66.109375 22.52939453 66.109375 2.12939453 C42.349375 2.12939453 18.589375 2.12939453 -5.890625 2.12939453 Z " fill="#000000" transform="translate(214.890625,130.87060546875)"/>
<path d="M0 0 C0.72030396 -0.00175232 1.44060791 -0.00350464 2.18273926 -0.00531006 C4.57497534 -0.00972835 6.9671381 -0.00679068 9.359375 -0.00341797 C11.01464858 -0.00409101 12.66992207 -0.00506105 14.32519531 -0.00631714 C17.79883767 -0.00779408 21.27245437 -0.00563968 24.74609375 -0.00097656 C29.20869998 0.00472073 33.67124608 0.0014417 38.1338501 -0.00454903 C41.5532273 -0.00815474 44.97259015 -0.00701601 48.39196777 -0.00442123 C50.03788256 -0.00375199 51.68379863 -0.00458029 53.32971191 -0.00690079 C55.62609331 -0.00942749 57.92237599 -0.0055865 60.21875 0 C61.52811523 0.00079559 62.83748047 0.00159119 64.18652344 0.00241089 C67.109375 0.12939453 67.109375 0.12939453 68.109375 1.12939453 C68.20858363 3.0570127 68.23736865 4.98828807 68.23876953 6.91845703 C68.24192169 8.15644043 68.24507385 9.39442383 68.24832153 10.66992188 C68.24653175 12.03141312 68.2444808 13.39290404 68.2421875 14.75439453 C68.24286059 16.14062517 68.24383066 17.5268557 68.24508667 18.91308594 C68.2465634 21.82178875 68.2444099 24.7304609 68.23974609 27.63916016 C68.23404881 31.37536052 68.23732794 35.11148905 68.24331856 38.84768677 C68.24692485 41.71118719 68.24578527 44.57467046 68.24319077 47.43817139 C68.24252168 48.81614185 68.24334926 50.19411385 68.24567032 51.57208252 C68.24819792 53.49483207 68.24366524 55.41758705 68.23876953 57.34033203 C68.23797394 58.43651855 68.23717834 59.53270508 68.23635864 60.66210938 C68.109375 63.12939453 68.109375 63.12939453 67.109375 64.12939453 C64.81426004 64.22910608 62.51602951 64.2573932 60.21875 64.25878906 C59.49844604 64.26054138 58.77814209 64.2622937 58.03601074 64.26409912 C55.64377466 64.26851742 53.2516119 64.26557974 50.859375 64.26220703 C49.20410142 64.26288008 47.54882793 64.26385011 45.89355469 64.2651062 C42.41991233 64.26658314 38.94629563 64.26442874 35.47265625 64.25976562 C31.01005002 64.25406833 26.54750392 64.25734736 22.0848999 64.26333809 C18.6655227 64.2669438 15.24615985 64.26580507 11.82678223 64.2632103 C10.18086744 64.26254106 8.53495137 64.26336935 6.88903809 64.26568985 C4.59265669 64.26821655 2.29637401 64.26437557 0 64.25878906 C-1.96404785 64.25759567 -1.96404785 64.25759567 -3.96777344 64.25637817 C-6.890625 64.12939453 -6.890625 64.12939453 -7.890625 63.12939453 C-7.98983363 61.20177636 -8.01861865 59.27050099 -8.02001953 57.34033203 C-8.02317169 56.10234863 -8.02632385 54.86436523 -8.02957153 53.58886719 C-8.02778175 52.22737594 -8.0257308 50.86588502 -8.0234375 49.50439453 C-8.02411059 48.11816389 -8.02508066 46.73193336 -8.02633667 45.34570312 C-8.0278134 42.43700031 -8.0256599 39.52832816 -8.02099609 36.61962891 C-8.01529881 32.88342855 -8.01857794 29.14730002 -8.02456856 25.41110229 C-8.02817485 22.54760187 -8.02703527 19.6841186 -8.02444077 16.82061768 C-8.02377168 15.44264721 -8.02459926 14.06467521 -8.02692032 12.68670654 C-8.02944792 10.76395699 -8.02491524 8.84120201 -8.02001953 6.91845703 C-8.01922394 5.82227051 -8.01842834 4.72608398 -8.01760864 3.59667969 C-7.76008852 -1.40692201 -4.27837107 0.00259961 0 0 Z M-5.890625 2.12939453 C-5.890625 21.92939453 -5.890625 41.72939453 -5.890625 62.12939453 C17.869375 62.12939453 41.629375 62.12939453 66.109375 62.12939453 C66.109375 42.32939453 66.109375 22.52939453 66.109375 2.12939453 C42.349375 2.12939453 18.589375 2.12939453 -5.890625 2.12939453 Z " fill="#000000" transform="translate(121.890625,130.87060546875)"/>
<path d="M0 0 C8 0 8 0 10.53125 2.1875 C11.1809375 3.115625 11.830625 4.04375 12.5 5 C13.1703125 5.928125 13.840625 6.85625 14.53125 7.8125 C15.0159375 8.534375 15.500625 9.25625 16 10 C16.33 6.7 16.66 3.4 17 0 C19.64 0 22.28 0 25 0 C25 8.58 25 17.16 25 26 C17 26 17 26 14.46875 23.8125 C13.8190625 22.884375 13.169375 21.95625 12.5 21 C11.8296875 20.071875 11.159375 19.14375 10.46875 18.1875 C9.74171875 17.1046875 9.74171875 17.1046875 9 16 C8.67 19.3 8.34 22.6 8 26 C5.36 26 2.72 26 0 26 C0 17.42 0 8.84 0 0 Z " fill="#8519B3" transform="translate(245,317)"/>
<path d="M0 0 C2.64 0 5.28 0 8 0 C8.33 2.64 8.66 5.28 9 8 C9.38929688 7.4225 9.77859375 6.845 10.1796875 6.25 C14.69476675 0.25763675 14.69476675 0.25763675 18.69140625 -0.53125 C21.17127693 -0.50302957 23.54667751 -0.3554109 26 0 C25.60167969 0.44730469 25.20335937 0.89460938 24.79296875 1.35546875 C23.99826172 2.26232422 23.99826172 2.26232422 23.1875 3.1875 C22.66542969 3.77917969 22.14335937 4.37085938 21.60546875 4.98046875 C19.83473147 7.20789253 18.41729471 9.53569479 17 12 C17.6496875 12.92683594 18.299375 13.85367187 18.96875 14.80859375 C19.81262221 16.01814391 20.65636558 17.22778397 21.5 18.4375 C21.92925781 19.04916016 22.35851562 19.66082031 22.80078125 20.29101562 C26 24.88671875 26 24.88671875 26 26 C22.57507437 26.41897148 19.40692033 26.62086297 16 26 C14.15100048 24.31178305 13.12237852 22.7267602 11.9375 20.53125 C11.628125 20.0259375 11.31875 19.520625 11 19 C10.34 19 9.68 19 9 19 C8.67 21.31 8.34 23.62 8 26 C5.36 26 2.72 26 0 26 C0 17.42 0 8.84 0 0 Z " fill="#8419B1" transform="translate(188,317)"/>
<path d="M0 0 C23.76 0 47.52 0 72 0 C66 7 66 7 63.04101562 7.8888855 C62.00654297 7.89445465 60.97207031 7.9000238 59.90625 7.90576172 C58.72482422 7.92782684 57.54339844 7.94989197 56.32617188 7.97262573 C55.06353516 7.95845612 53.80089844 7.9442865 52.5 7.9296875 C51.19095703 7.93638458 49.88191406 7.94308167 48.53320312 7.94998169 C45.7689397 7.96027207 43.00626531 7.94540647 40.2421875 7.91259766 C36.71050561 7.87270544 33.18254642 7.89568647 29.65100098 7.9376049 C26.26704084 7.96908106 22.88406573 7.94700043 19.5 7.9296875 C18.23736328 7.94385712 16.97472656 7.95802673 15.67382812 7.97262573 C14.49240234 7.95056061 13.31097656 7.92849548 12.09375 7.90576172 C11.05927734 7.90019257 10.02480469 7.89462341 8.95898438 7.8888855 C6 7 6 7 0 0 Z " fill="#7B7878" transform="translate(209,133)"/>
<path d="M0 0 C23.76 0 47.52 0 72 0 C66 7 66 7 63.04101562 7.8888855 C62.00654297 7.89445465 60.97207031 7.9000238 59.90625 7.90576172 C58.72482422 7.92782684 57.54339844 7.94989197 56.32617188 7.97262573 C55.06353516 7.95845612 53.80089844 7.9442865 52.5 7.9296875 C51.19095703 7.93638458 49.88191406 7.94308167 48.53320312 7.94998169 C45.7689397 7.96027207 43.00626531 7.94540647 40.2421875 7.91259766 C36.71050561 7.87270544 33.18254642 7.89568647 29.65100098 7.9376049 C26.26704084 7.96908106 22.88406573 7.94700043 19.5 7.9296875 C18.23736328 7.94385712 16.97472656 7.95802673 15.67382812 7.97262573 C14.49240234 7.95056061 13.31097656 7.92849548 12.09375 7.90576172 C11.05927734 7.90019257 10.02480469 7.89462341 8.95898438 7.8888855 C6 7 6 7 0 0 Z " fill="#7B7878" transform="translate(116,133)"/>
<path d="M0 0 C5.63956587 2.32807702 9.49077744 6.10835644 13 11 C15.17529739 17.52589218 14.64726539 23.37632369 11.6875 29.5625 C9.46226415 33.84591195 9.46226415 33.84591195 6 35 C7.85123967 30.23966942 7.85123967 30.23966942 9.125 28.1875 C11.15128847 23.12177883 10.2458476 16.19103168 9 11 C7.06402968 9.48705712 7.06402968 9.48705712 5 9 C5 8.34 5 7.68 5 7 C-4.03301656 6.42439952 -4.03301656 6.42439952 -12.6875 8.5 C-16.67836692 12.81445073 -18.13950118 17.34211258 -18.25 23.1875 C-18.04946622 26.24564016 -17.74137075 29.03451702 -17 32 C-20.72300419 28.63728654 -21.77989547 26.56506432 -22.203125 21.6328125 C-22.30272768 16.30406892 -22.18793782 12.48303755 -19 8 C-12.90690784 1.99413002 -8.76635579 -1.23233117 0 0 Z " fill="#912929" transform="translate(267,44)"/>
<path d="M0 0 C2.97 0 5.94 0 9 0 C8.01 1.485 8.01 1.485 7 3 C7.66 3.33 8.32 3.66 9 4 C9.28875 4.66 9.5775 5.32 9.875 6 C10.7860489 8.12104484 10.7860489 8.12104484 12.6484375 8.62109375 C15.70769486 9.11403057 18.65262861 9.09347371 21.75 9.0625 C22.92046875 9.05347656 24.0909375 9.04445312 25.296875 9.03515625 C26.18890625 9.02355469 27.0809375 9.01195312 28 9 C29.2380014 12.57644848 28.74926071 15.33694766 28 19 C25.60458732 19.19585135 23.20907226 19.38192107 20.8125 19.5625 C20.13896484 19.61857422 19.46542969 19.67464844 18.77148438 19.73242188 C14.982869 20.00963763 11.68172206 19.96511161 8 19 C8.66 18.67 9.32 18.34 10 18 C9.835 17.401875 9.67 16.80375 9.5 16.1875 C9 14 9 14 9 11 C7.03177114 9.03177114 3.65191291 9.33751619 1 9 C0.14670459 5.90680414 0 3.20663885 0 0 Z " fill="#342F2F" transform="translate(241,157)"/>
<path d="M0 0 C2.97 0 5.94 0 9 0 C8.01 1.485 8.01 1.485 7 3 C7.66 3.33 8.32 3.66 9 4 C9.28875 4.66 9.5775 5.32 9.875 6 C10.7860489 8.12104484 10.7860489 8.12104484 12.6484375 8.62109375 C15.70769486 9.11403057 18.65262861 9.09347371 21.75 9.0625 C22.92046875 9.05347656 24.0909375 9.04445312 25.296875 9.03515625 C26.18890625 9.02355469 27.0809375 9.01195312 28 9 C29.2380014 12.57644848 28.74926071 15.33694766 28 19 C25.60458732 19.19585135 23.20907226 19.38192107 20.8125 19.5625 C20.13896484 19.61857422 19.46542969 19.67464844 18.77148438 19.73242188 C14.982869 20.00963763 11.68172206 19.96511161 8 19 C8.66 18.67 9.32 18.34 10 18 C9.835 17.401875 9.67 16.80375 9.5 16.1875 C9 14 9 14 9 11 C7.03177114 9.03177114 3.65191291 9.33751619 1 9 C0.14670459 5.90680414 0 3.20663885 0 0 Z " fill="#342F2F" transform="translate(148,157)"/>
<path d="M0 0 C1.51400391 0.01740234 1.51400391 0.01740234 3.05859375 0.03515625 C4.07050781 0.04417969 5.08242187 0.05320312 6.125 0.0625 C7.29869141 0.07990234 7.29869141 0.07990234 8.49609375 0.09765625 C9.2421875 1.80078125 9.2421875 1.80078125 9.49609375 4.09765625 C7.84375 6.45703125 7.84375 6.45703125 5.55859375 8.84765625 C4.80707031 9.646875 4.05554688 10.44609375 3.28125 11.26953125 C2.69214844 11.8728125 2.10304687 12.47609375 1.49609375 13.09765625 C2.77898132 15.65269582 2.77898132 15.65269582 4.49609375 18.09765625 C5.48609375 18.09765625 6.47609375 18.09765625 7.49609375 18.09765625 C8.15609375 19.08765625 8.81609375 20.07765625 9.49609375 21.09765625 C13.50262571 25.30451481 15.43926129 27.24298986 21.24609375 27.41015625 C26.09294472 27.36813153 28.77382973 26.35463727 32.49609375 23.09765625 C33.15609375 22.10765625 33.81609375 21.11765625 34.49609375 20.09765625 C35.48609375 20.42765625 36.47609375 20.75765625 37.49609375 21.09765625 C31.2500144 29.12526339 31.2500144 29.12526339 26.49609375 30.09765625 C20.37723029 30.65298167 15.84132008 30.47358867 10.49609375 27.09765625 C10.16609375 28.08765625 9.83609375 29.07765625 9.49609375 30.09765625 C7.55981606 30.20572756 5.62181619 30.28327875 3.68359375 30.34765625 C2.06517578 30.41726563 2.06517578 30.41726563 0.4140625 30.48828125 C-2.50390625 30.09765625 -2.50390625 30.09765625 -4.390625 28.08203125 C-4.75800781 27.4271875 -5.12539062 26.77234375 -5.50390625 26.09765625 C-6.16390625 26.75765625 -6.82390625 27.41765625 -7.50390625 28.09765625 C-8.16390625 28.09765625 -8.82390625 28.09765625 -9.50390625 28.09765625 C-9.50390625 25.78765625 -9.50390625 23.47765625 -9.50390625 21.09765625 C-8.18390625 21.09765625 -6.86390625 21.09765625 -5.50390625 21.09765625 C-4.94703125 22.08765625 -4.39015625 23.07765625 -3.81640625 24.09765625 C-1.89267873 27.28989274 -1.89267873 27.28989274 0.75 27.49609375 C3.00251729 27.47494335 5.25219513 27.2956473 7.49609375 27.09765625 C4.52609375 22.80765625 1.55609375 18.51765625 -1.50390625 14.09765625 C1.30830119 9.41064385 3.63941648 6.78292564 7.49609375 3.09765625 C4.36040767 2.5857075 1.61550734 2.42532622 -1.50390625 3.09765625 C-3.76811316 4.99908968 -5.42011064 6.98592877 -7.19140625 9.34765625 C-7.62453125 9.92515625 -8.05765625 10.50265625 -8.50390625 11.09765625 C-8.83390625 11.09765625 -9.16390625 11.09765625 -9.50390625 11.09765625 C-9.50390625 8.12765625 -9.50390625 5.15765625 -9.50390625 2.09765625 C-9.17390625 3.41765625 -8.84390625 4.73765625 -8.50390625 6.09765625 C-7.69953125 5.29328125 -6.89515625 4.48890625 -6.06640625 3.66015625 C-2.50390625 0.09765625 -2.50390625 0.09765625 0 0 Z " fill="#060408" transform="translate(205.50390625,314.90234375)"/>
<path d="M0 0 C1.98 0 3.96 0 6 0 C8.375 2.5 8.375 2.5 10 5 C10.33 3.35 10.66 1.7 11 0 C12.98 0 14.96 0 17 0 C17 5.61 17 11.22 17 17 C12 17 12 17 10.41796875 15.6875 C9.27864583 14.125 8.13932292 12.5625 7 11 C6.67 12.98 6.34 14.96 6 17 C4.02 17 2.04 17 0 17 C0 11.39 0 5.78 0 0 Z " fill="#F3F3F3" transform="translate(130,55)"/>
<path d="M0 0 C11.3400915 -0.49304746 11.3400915 -0.49304746 14.39453125 1.7890625 C16 4 16 4 15.9375 7.625 C15 11 15 11 12 13 C8.8125 13.125 8.8125 13.125 6 13 C6 14.32 6 15.64 6 17 C4.02 17 2.04 17 0 17 C0 11.39 0 5.78 0 0 Z " fill="#F7F7F7" transform="translate(150,55)"/>
<path d="M0 0 C2.43375 -0.04125 4.8675 -0.0825 7.375 -0.125 C8.13989746 -0.14320801 8.90479492 -0.16141602 9.69287109 -0.18017578 C11.46287275 -0.1948117 13.23272455 -0.09928514 15 0 C15.66 0.66 16.32 1.32 17 2 C15.02 2.99 15.02 2.99 13 4 C15.31 4 17.62 4 20 4 C19.1028125 4.37125 19.1028125 4.37125 18.1875 4.75 C15.87793551 5.87128608 15.87793551 5.87128608 14.5 8.0625 C12.75490519 10.3165808 11.76576527 10.61851514 9 11 C9.33 11.99 9.66 12.98 10 14 C9.01 14.33 8.02 14.66 7 15 C7.33 15.99 7.66 16.98 8 18 C4.04 18.495 4.04 18.495 0 19 C0 12.73 0 6.46 0 0 Z " fill="#332E2E" transform="translate(216,147)"/>
<path d="M0 0 C2.43375 -0.04125 4.8675 -0.0825 7.375 -0.125 C8.13989746 -0.14320801 8.90479492 -0.16141602 9.69287109 -0.18017578 C11.46287275 -0.1948117 13.23272455 -0.09928514 15 0 C15.66 0.66 16.32 1.32 17 2 C15.02 2.99 15.02 2.99 13 4 C15.31 4 17.62 4 20 4 C19.1028125 4.37125 19.1028125 4.37125 18.1875 4.75 C15.87793551 5.87128608 15.87793551 5.87128608 14.5 8.0625 C12.75490519 10.3165808 11.76576527 10.61851514 9 11 C9.33 11.99 9.66 12.98 10 14 C9.01 14.33 8.02 14.66 7 15 C7.33 15.99 7.66 16.98 8 18 C4.04 18.495 4.04 18.495 0 19 C0 12.73 0 6.46 0 0 Z " fill="#332E2E" transform="translate(123,147)"/>
<path d="M0 0 C1.98 0 3.96 0 6 0 C6.33 3.63 6.66 7.26 7 11 C7.99 11 8.98 11 10 11 C10.33 7.37 10.66 3.74 11 0 C12.65 0 14.3 0 16 0 C16.13489391 2.26921536 16.23193995 4.5407067 16.3125 6.8125 C16.37050781 8.07707031 16.42851562 9.34164062 16.48828125 10.64453125 C16 14 16 14 13.66796875 15.91796875 C10.41344141 17.23788687 8.4791371 17.57985618 5 17 C2.125 15.25 2.125 15.25 0 12 C-0.41449604 7.96522209 -0.28999494 4.04059621 0 0 Z " fill="#F7F7F7" transform="translate(167,55)"/>
<path d="M0 0 C2.95839355 -0.02689449 5.91654427 -0.04678741 8.875 -0.0625 C9.71675781 -0.07087891 10.55851563 -0.07925781 11.42578125 -0.08789062 C12.23144531 -0.09111328 13.03710938 -0.09433594 13.8671875 -0.09765625 C14.98262939 -0.10551147 14.98262939 -0.10551147 16.12060547 -0.11352539 C18 0 18 0 20 1 C20 1.66 20 2.32 20 3 C19.01 3 18.02 3 17 3 C17.66 3.33 18.32 3.66 19 4 C19 4.66 19 5.32 19 6 C19.66 6.66 20.32 7.32 21 8 C20 9 20 9 18.05053711 9.11352539 C17.2178833 9.10828857 16.38522949 9.10305176 15.52734375 9.09765625 C14.62822266 9.09443359 13.72910156 9.09121094 12.80273438 9.08789062 C11.85720703 9.07951172 10.91167969 9.07113281 9.9375 9.0625 C8.98810547 9.05798828 8.03871094 9.05347656 7.06054688 9.04882812 C4.70700469 9.03700128 2.35349468 9.01906521 0 9 C0 6.03 0 3.06 0 0 Z " fill="#423D3D" transform="translate(216,177)"/>
<path d="M0 0 C2.95839355 -0.02689449 5.91654427 -0.04678741 8.875 -0.0625 C9.71675781 -0.07087891 10.55851563 -0.07925781 11.42578125 -0.08789062 C12.23144531 -0.09111328 13.03710938 -0.09433594 13.8671875 -0.09765625 C14.98262939 -0.10551147 14.98262939 -0.10551147 16.12060547 -0.11352539 C18 0 18 0 20 1 C20 1.66 20 2.32 20 3 C19.01 3 18.02 3 17 3 C17.66 3.33 18.32 3.66 19 4 C19 4.66 19 5.32 19 6 C19.66 6.66 20.32 7.32 21 8 C20 9 20 9 18.05053711 9.11352539 C17.2178833 9.10828857 16.38522949 9.10305176 15.52734375 9.09765625 C14.62822266 9.09443359 13.72910156 9.09121094 12.80273438 9.08789062 C11.85720703 9.07951172 10.91167969 9.07113281 9.9375 9.0625 C8.98810547 9.05798828 8.03871094 9.05347656 7.06054688 9.04882812 C4.70700469 9.03700128 2.35349468 9.01906521 0 9 C0 6.03 0 3.06 0 0 Z " fill="#423D3D" transform="translate(123,177)"/>
<path d="M0 0 C1.07765625 0.03609375 2.1553125 0.0721875 3.265625 0.109375 C4.49539063 0.17898437 4.49539063 0.17898437 5.75 0.25 C4 5.125 4 5.125 1.75 6.25 C2.41 6.58 3.07 6.91 3.75 7.25 C3.75 7.91 3.75 8.57 3.75 9.25 C2.8528125 9.5903125 2.8528125 9.5903125 1.9375 9.9375 C-0.81351888 11.58811133 -1.77484637 13.4472081 -3.25 16.25 C-3.58 15.59 -3.91 14.93 -4.25 14.25 C-5.24 13.92 -6.23 13.59 -7.25 13.25 C-6.59 12.59 -5.93 11.93 -5.25 11.25 C-7.56 10.92 -9.87 10.59 -12.25 10.25 C-10.93 9.92 -9.61 9.59 -8.25 9.25 C-8.91 7.6 -9.57 5.95 -10.25 4.25 C-7.0246569 0.27312065 -5.05259733 -0.21967814 0 0 Z " fill="#332E2E" transform="translate(254.25,146.75)"/>
<path d="M0 0 C1.07765625 0.03609375 2.1553125 0.0721875 3.265625 0.109375 C4.49539062 0.17898437 4.49539062 0.17898437 5.75 0.25 C4 5.125 4 5.125 1.75 6.25 C2.41 6.58 3.07 6.91 3.75 7.25 C3.75 7.91 3.75 8.57 3.75 9.25 C2.8528125 9.5903125 2.8528125 9.5903125 1.9375 9.9375 C-0.81351888 11.58811133 -1.77484637 13.4472081 -3.25 16.25 C-3.58 15.59 -3.91 14.93 -4.25 14.25 C-5.24 13.92 -6.23 13.59 -7.25 13.25 C-6.59 12.59 -5.93 11.93 -5.25 11.25 C-7.56 10.92 -9.87 10.59 -12.25 10.25 C-10.93 9.92 -9.61 9.59 -8.25 9.25 C-8.91 7.6 -9.57 5.95 -10.25 4.25 C-7.0246569 0.27312065 -5.05259733 -0.21967814 0 0 Z " fill="#332E2E" transform="translate(161.25,146.75)"/>
<path d="M0 0 C0.72750458 -0.00249756 1.45500916 -0.00499512 2.20455933 -0.00756836 C4.31740957 -0.01351595 6.43011651 -0.01194298 8.54296875 -0.0078125 C10.38991333 -0.00612061 10.38991333 -0.00612061 12.27416992 -0.00439453 C15.8502936 0.12638209 19.28196936 0.55502095 22.8125 1.125 C22.8125 1.785 22.8125 2.445 22.8125 3.125 C3.6725 3.125 -15.4675 3.125 -35.1875 3.125 C-35.1875 2.465 -35.1875 1.805 -35.1875 1.125 C-23.46392344 0.20162407 -11.75450307 0.01417622 0 0 Z " fill="#8A8888" transform="translate(251.1875,135.875)"/>
<path d="M0 0 C0.72750458 -0.00249756 1.45500916 -0.00499512 2.20455933 -0.00756836 C4.31740957 -0.01351595 6.43011651 -0.01194298 8.54296875 -0.0078125 C10.38991333 -0.00612061 10.38991333 -0.00612061 12.27416992 -0.00439453 C15.8502936 0.12638209 19.28196936 0.55502095 22.8125 1.125 C22.8125 1.785 22.8125 2.445 22.8125 3.125 C3.6725 3.125 -15.4675 3.125 -35.1875 3.125 C-35.1875 2.465 -35.1875 1.805 -35.1875 1.125 C-23.46392344 0.20162407 -11.75450307 0.01417622 0 0 Z " fill="#8A8888" transform="translate(158.1875,135.875)"/>
<path d="M0 0 C5.28 0 10.56 0 16 0 C16 1.32 16 2.64 16 4 C14.35 4 12.7 4 11 4 C11 8.29 11 12.58 11 17 C9.02 17 7.04 17 5 17 C5 12.71 5 8.42 5 4 C3.35 4 1.7 4 0 4 C0 2.68 0 1.36 0 0 Z " fill="#FAFAFA" transform="translate(184,55)"/>
<path d="M0 0 C0.9075 0.00257813 1.815 0.00515625 2.75 0.0078125 C4.11125 0.00394531 4.11125 0.00394531 5.5 0 C7.75 0.1328125 7.75 0.1328125 8.75 1.1328125 C8.79063832 2.79898365 8.792721 4.46669345 8.75 6.1328125 C8.42 4.8128125 8.09 3.4928125 7.75 2.1328125 C4.78 2.1328125 1.81 2.1328125 -1.25 2.1328125 C-1.25 10.7128125 -1.25 19.2928125 -1.25 28.1328125 C1.72 28.1328125 4.69 28.1328125 7.75 28.1328125 C7.75 26.4828125 7.75 24.8328125 7.75 23.1328125 C8.08 23.1328125 8.41 23.1328125 8.75 23.1328125 C8.79254356 25.13235996 8.79080783 27.13322886 8.75 29.1328125 C7.75 30.1328125 7.75 30.1328125 5.5 30.265625 C4.5925 30.26304687 3.685 30.26046875 2.75 30.2578125 C1.38875 30.26167969 1.38875 30.26167969 0 30.265625 C-2.25 30.1328125 -2.25 30.1328125 -3.25 29.1328125 C-3.32179964 27.61353212 -3.33392007 26.09113768 -3.3125 24.5703125 C-3.30347656 23.74402344 -3.29445312 22.91773438 -3.28515625 22.06640625 C-3.27355469 21.42832031 -3.26195312 20.79023438 -3.25 20.1328125 C-3.91 20.1328125 -4.57 20.1328125 -5.25 20.1328125 C-5.25 16.5028125 -5.25 12.8728125 -5.25 9.1328125 C-4.59 9.1328125 -3.93 9.1328125 -3.25 9.1328125 C-3.270625 7.8334375 -3.29125 6.5340625 -3.3125 5.1953125 C-3.33399454 3.84115617 -3.32148199 2.48525167 -3.25 1.1328125 C-2.25 0.1328125 -2.25 0.1328125 0 0 Z " fill="#010101" transform="translate(189.25,314.8671875)"/>
<path d="M0 0 C1.875 1.0625 1.875 1.0625 3 3 C2.66666667 9.33333333 2.66666667 9.33333333 0 12 C-3.5625 11.75 -3.5625 11.75 -7 11 C-8.39935013 8.20129973 -8.25265405 6.09501208 -8 3 C-5.90534242 -0.30735407 -3.75951639 -0.56392746 0 0 Z " fill="#0A040D" transform="translate(230,324)"/>
<path d="M0 0 C1.875 1.0625 1.875 1.0625 3 3 C2.66666667 9.33333333 2.66666667 9.33333333 0 12 C-3.5625 11.75 -3.5625 11.75 -7 11 C-8.39935013 8.20129973 -8.25265405 6.09501208 -8 3 C-5.90534242 -0.30735407 -3.75951639 -0.56392746 0 0 Z " fill="#0A040D" transform="translate(173,324)"/>
<path d="M0 0 C1.98 0 3.96 0 6 0 C6 5.61 6 11.22 6 17 C4.02 17 2.04 17 0 17 C0 11.39 0 5.78 0 0 Z " fill="#F8F8F8" transform="translate(122,55)"/>
<path d="M0 0 C0.9075 0.00257813 1.815 0.00515625 2.75 0.0078125 C4.11125 0.00394531 4.11125 0.00394531 5.5 0 C7.75 0.1328125 7.75 0.1328125 8.75 1.1328125 C8.84993532 3.1933656 8.88080906 5.2573384 8.8828125 7.3203125 C8.88474609 9.20363281 8.88474609 9.20363281 8.88671875 11.125 C8.88357666 12.11064941 8.88357666 12.11064941 8.88037109 13.11621094 C8.87502234 15.12442585 8.88031691 17.13241709 8.88671875 19.140625 C8.88542969 20.39617187 8.88414062 21.65171875 8.8828125 22.9453125 C8.88168457 24.10675781 8.88055664 25.26820313 8.87939453 26.46484375 C8.75 29.1328125 8.75 29.1328125 7.75 30.1328125 C6.23071962 30.20461214 4.70832518 30.21673257 3.1875 30.1953125 C2.36121094 30.18628906 1.53492188 30.17726563 0.68359375 30.16796875 C-0.27353516 30.15056641 -0.27353516 30.15056641 -1.25 30.1328125 C-1.25 29.1428125 -1.25 28.1528125 -1.25 27.1328125 C1.39 27.4628125 4.03 27.7928125 6.75 28.1328125 C6.75 19.5528125 6.75 10.9728125 6.75 2.1328125 C3.78 2.1328125 0.81 2.1328125 -2.25 2.1328125 C-2.25 4.1128125 -2.25 6.0928125 -2.25 8.1328125 C-2.58 8.1328125 -2.91 8.1328125 -3.25 8.1328125 C-3.29241723 5.79986475 -3.29092937 3.46578683 -3.25 1.1328125 C-2.25 0.1328125 -2.25 0.1328125 0 0 Z " fill="#000000" transform="translate(263.25,314.8671875)"/>
<path d="M0 0 C4.29 0 8.58 0 13 0 C13 3.11227195 12.54372951 5.94152152 12 9 C10.37581255 9.08090971 8.75048255 9.13914995 7.125 9.1875 C5.76761719 9.23970703 5.76761719 9.23970703 4.3828125 9.29296875 C3.20332031 9.14794922 3.20332031 9.14794922 2 9 C1.34 8.01 0.68 7.02 0 6 C0.66 6 1.32 6 2 6 C1.34 4.02 0.68 2.04 0 0 Z " fill="#484444" transform="translate(257,167)"/>
<path d="M0 0 C4.29 0 8.58 0 13 0 C13 3.11227195 12.54372951 5.94152152 12 9 C10.37581255 9.08090971 8.75048255 9.13914995 7.125 9.1875 C5.76761719 9.23970703 5.76761719 9.23970703 4.3828125 9.29296875 C3.20332031 9.14794922 3.20332031 9.14794922 2 9 C1.34 8.01 0.68 7.02 0 6 C0.66 6 1.32 6 2 6 C1.34 4.02 0.68 2.04 0 0 Z " fill="#484444" transform="translate(164,167)"/>
<path d="M0 0 C0.76183594 -0.01417969 1.52367187 -0.02835938 2.30859375 -0.04296875 C4.79597315 0.21137334 6.41058106 0.94732804 8.5625 2.1875 C5.535185 3.196605 3.87744626 3.1777504 0.75 3 C-4.1477004 2.97858149 -6.81693758 3.65524398 -10.4375 7.1875 C-14.27594442 13.78437026 -14.2606827 20.89476921 -12.4375 28.1875 C-14.78739178 26.49851528 -16.24169215 25.12888387 -16.84375 22.234375 C-17.15747373 14.75729266 -14.69277532 8.82782233 -9.875 3.1875 C-6.60346426 0.50316298 -4.10962477 0.03465114 0 0 Z " fill="#BA3131" transform="translate(262.4375,47.8125)"/>
<path d="M0 0 C0 0.66 0 1.32 0 2 C-0.99 2 -1.98 2 -3 2 C-2.34 2.33 -1.68 2.66 -1 3 C-1 3.66 -1 4.32 -1 5 C-0.34 5.66 0.32 6.32 1 7 C-0.89488952 8.89488952 -3.57139146 8.18019112 -6.08984375 8.23046875 C-8.56373675 7.93198268 -9.29895056 6.70104944 -11 5 C-11 4.34 -11 3.68 -11 3 C-11.66 2.67 -12.32 2.34 -13 2 C-13 1.34 -13 0.68 -13 0 C-8.37078475 -1.0161692 -4.65537393 -0.83796731 0 0 Z " fill="#3C3737" transform="translate(236,178)"/>
<path d="M0 0 C0 0.66 0 1.32 0 2 C-0.99 2 -1.98 2 -3 2 C-2.34 2.33 -1.68 2.66 -1 3 C-1 3.66 -1 4.32 -1 5 C-0.34 5.66 0.32 6.32 1 7 C-0.89488952 8.89488952 -3.57139146 8.18019112 -6.08984375 8.23046875 C-8.56373675 7.93198268 -9.29895056 6.70104944 -11 5 C-11 4.34 -11 3.68 -11 3 C-11.66 2.67 -12.32 2.34 -13 2 C-13 1.34 -13 0.68 -13 0 C-8.37078475 -1.0161692 -4.65537393 -0.83796731 0 0 Z " fill="#3C3737" transform="translate(143,178)"/>
<path d="M0 0 C2.97 0 5.94 0 9 0 C8.01 1.485 8.01 1.485 7 3 C7.66 3.33 8.32 3.66 9 4 C9 5.65 9 7.3 9 9 C6.36 9 3.72 9 1 9 C0.14670459 5.90680414 0 3.20663885 0 0 Z " fill="#3E3939" transform="translate(241,157)"/>
<path d="M0 0 C2.97 0 5.94 0 9 0 C8.01 1.485 8.01 1.485 7 3 C7.66 3.33 8.32 3.66 9 4 C9 5.65 9 7.3 9 9 C6.36 9 3.72 9 1 9 C0.14670459 5.90680414 0 3.20663885 0 0 Z " fill="#3E3939" transform="translate(148,157)"/>
<path d="M0 0 C2.5 0.875 2.5 0.875 5 3 C6.6327245 9.66905161 4.4395392 15.18995607 1.38671875 21.06640625 C0 23 0 23 -3 24 C-1.14876033 19.23966942 -1.14876033 19.23966942 0.125 17.1875 C2.25464333 11.86339166 0.91914054 5.51484324 0 0 Z " fill="#AA2F2F" transform="translate(276,55)"/>
<path d="M0 0 C3.14548969 1.58681233 5.37765636 3.00531272 7 6.25 C7 6.91 7 7.57 7 8.25 C1.95879064 6.98969766 0.06219875 5.36812936 -3 1.25 C-8.01480106 -0.42160035 -13.05800972 -0.67877796 -17.875 1.625 C-18.57625 2.16125 -19.2775 2.6975 -20 3.25 C-20.99 3.91 -21.98 4.57 -23 5.25 C-22.04908327 2.74303771 -21.06198622 1.30598755 -19.0625 -0.5 C-12.77550074 -3.06612215 -6.2253099 -2.57353498 0 0 Z " fill="#A52D2D" transform="translate(273,48.75)"/>
<path d="M0 0 C1.65 0.33 3.3 0.66 5 1 C5.33 2.32 5.66 3.64 6 5 C5.01 5.66 4.02 6.32 3 7 C3.33 7.66 3.66 8.32 4 9 C-0.55384615 9.36923077 -0.55384615 9.36923077 -2.8125 7.5 C-3.204375 7.005 -3.59625 6.51 -4 6 C-3.34 6 -2.68 6 -2 6 C-2 5.34 -2 4.68 -2 4 C-3.65 3.67 -5.3 3.34 -7 3 C-3.25 1.875 -3.25 1.875 -1 3 C-0.67 2.01 -0.34 1.02 0 0 Z " fill="#2B2525" transform="translate(237,177)"/>
<path d="M0 0 C1.65 0.33 3.3 0.66 5 1 C5.33 2.32 5.66 3.64 6 5 C5.01 5.66 4.02 6.32 3 7 C3.33 7.66 3.66 8.32 4 9 C-0.55384615 9.36923077 -0.55384615 9.36923077 -2.8125 7.5 C-3.204375 7.005 -3.59625 6.51 -4 6 C-3.34 6 -2.68 6 -2 6 C-2 5.34 -2 4.68 -2 4 C-3.65 3.67 -5.3 3.34 -7 3 C-3.25 1.875 -3.25 1.875 -1 3 C-0.67 2.01 -0.34 1.02 0 0 Z " fill="#2B2525" transform="translate(144,177)"/>
<path d="M0 0 C-1.75 4.875 -1.75 4.875 -4 6 C-3.67 6.66 -3.34 7.32 -3 8 C-5.97 8 -8.94 8 -12 8 C-11.505 7.401875 -11.01 6.80375 -10.5 6.1875 C-8.71723582 4.02970006 -8.71723582 4.02970006 -9 1 C-6.04335481 -0.4783226 -3.25770263 -0.06032783 0 0 Z " fill="#383232" transform="translate(260,147)"/>
<path d="M0 0 C-1.75 4.875 -1.75 4.875 -4 6 C-3.67 6.66 -3.34 7.32 -3 8 C-5.97 8 -8.94 8 -12 8 C-11.505 7.401875 -11.01 6.80375 -10.5 6.1875 C-8.71723582 4.02970006 -8.71723582 4.02970006 -9 1 C-6.04335481 -0.4783226 -3.25770263 -0.06032783 0 0 Z " fill="#383232" transform="translate(167,147)"/>
<path d="M0 0 C2.125 0.375 2.125 0.375 4 1 C3.62875 1.763125 3.2575 2.52625 2.875 3.3125 C2.58625 4.199375 2.2975 5.08625 2 6 C2.99 7.485 2.99 7.485 4 9 C4.1953125 11.48046875 4.1953125 11.48046875 4.125 14.1875 C4.10695313 15.08855469 4.08890625 15.98960937 4.0703125 16.91796875 C4.03550781 17.94857422 4.03550781 17.94857422 4 19 C3.01 18.67 2.02 18.34 1 18 C-0.37001429 14.8033 0.1747596 12.30096158 1 9 C0.01 8.67 -0.98 8.34 -2 8 C-1.34 7.67 -0.68 7.34 0 7 C0 5.68 0 4.36 0 3 C-0.66 2.67 -1.32 2.34 -2 2 C-1.34 1.34 -0.68 0.68 0 0 Z " fill="#312B2B" transform="translate(270,167)"/>
<path d="M0 0 C2.125 0.375 2.125 0.375 4 1 C3.62875 1.763125 3.2575 2.52625 2.875 3.3125 C2.58625 4.199375 2.2975 5.08625 2 6 C2.99 7.485 2.99 7.485 4 9 C4.1953125 11.48046875 4.1953125 11.48046875 4.125 14.1875 C4.10695312 15.08855469 4.08890625 15.98960937 4.0703125 16.91796875 C4.03550781 17.94857422 4.03550781 17.94857422 4 19 C3.01 18.67 2.02 18.34 1 18 C-0.37001429 14.8033 0.1747596 12.30096158 1 9 C0.01 8.67 -0.98 8.34 -2 8 C-1.34 7.67 -0.68 7.34 0 7 C0 5.68 0 4.36 0 3 C-0.66 2.67 -1.32 2.34 -2 2 C-1.34 1.34 -0.68 0.68 0 0 Z " fill="#312B2B" transform="translate(177,167)"/>
<path d="M0 0 C1.65 0.33 3.3 0.66 5 1 C5.33 1.99 5.66 2.98 6 4 C5.67 4.66 5.34 5.32 5 6 C5.66 6.66 6.32 7.32 7 8 C6 9 6 9 2.4375 9.0625 C1.303125 9.041875 0.16875 9.02125 -1 9 C-1.33 8.34 -1.66 7.68 -2 7 C-1.34 6.67 -0.68 6.34 0 6 C-0.2784375 5.071875 -0.2784375 5.071875 -0.5625 4.125 C-1 2 -1 2 0 0 Z " fill="#322D2D" transform="translate(231,167)"/>
<path d="M0 0 C1.65 0.33 3.3 0.66 5 1 C5.33 1.99 5.66 2.98 6 4 C5.67 4.66 5.34 5.32 5 6 C5.66 6.66 6.32 7.32 7 8 C6 9 6 9 2.4375 9.0625 C1.303125 9.041875 0.16875 9.02125 -1 9 C-1.33 8.34 -1.66 7.68 -2 7 C-1.34 6.67 -0.68 6.34 0 6 C-0.2784375 5.071875 -0.2784375 5.071875 -0.5625 4.125 C-1 2 -1 2 0 0 Z " fill="#322D2D" transform="translate(138,167)"/>
<path d="M0 0 C1.98 0 3.96 0 6 0 C6 1.66666667 6 3.33333333 6 5 C6.66 5.33 7.32 5.66 8 6 C8 6.66 8 7.32 8 8 C5.36 8.33 2.72 8.66 0 9 C0 6.03 0 3.06 0 0 Z " fill="#3F3A3A" transform="translate(216,157)"/>
<path d="M0 0 C1.98 0 3.96 0 6 0 C6 1.66666667 6 3.33333333 6 5 C6.66 5.33 7.32 5.66 8 6 C8 6.66 8 7.32 8 8 C5.36 8.33 2.72 8.66 0 9 C0 6.03 0 3.06 0 0 Z " fill="#3F3A3A" transform="translate(123,157)"/>
<path d="M0 0 C1.67542976 0.28604898 3.34385343 0.61781233 5 1 C6.125 5.75 6.125 5.75 5 8 C3.33388095 8.042721 1.66617115 8.04063832 0 8 C-1 7 -1 7 -1.125 4 C-1 1 -1 1 0 0 Z " fill="#363636" transform="translate(225,326)"/>
<path d="M0 0 C1.67542976 0.28604898 3.34385343 0.61781233 5 1 C6.125 5.75 6.125 5.75 5 8 C3.33388095 8.042721 1.66617115 8.04063832 0 8 C-1 7 -1 7 -1.125 4 C-1 1 -1 1 0 0 Z " fill="#363636" transform="translate(168,326)"/>
<path d="M0 0 C0.66 0.66 1.32 1.32 2 2 C1.071875 2.928125 1.071875 2.928125 0.125 3.875 C-2.71043937 8.04476378 -3.27334545 12.07595927 -4 17 C-5.65 15.35 -7.3 13.7 -9 12 C-6 8 -3 4 0 0 Z " fill="#2C2C2C" transform="translate(215,317)"/>
<path d="M0 0 C1.1446875 1.175625 1.1446875 1.175625 2.3125 2.375 C4.90891805 5.07257717 4.90891805 5.07257717 8 7 C8 5.02 8 3.04 8 1 C8.33 1 8.66 1 9 1 C9 4.63 9 8.26 9 12 C7.33333333 10.33333333 5.66666667 8.66666667 4 7 C3.236875 6.29875 2.47375 5.5975 1.6875 4.875 C0 3 0 3 0 0 Z " fill="#17031F" transform="translate(253,316)"/>
<path d="M0 0 C3.26008643 3.16952847 6.22237877 6.39937989 9 10 C8.01 10 7.02 10 6 10 C3.8125 7.5 3.8125 7.5 2 5 C1.67 6.98 1.34 8.96 1 11 C0.67 11 0.34 11 0 11 C0 7.37 0 3.74 0 0 Z " fill="#180322" transform="translate(253,332)"/>
<path d="M0 0 C1.65 0 3.3 0 5 0 C5.625 1.875 5.625 1.875 6 4 C5.34 4.66 4.68 5.32 4 6 C2.68 6 1.36 6 0 6 C0 4.02 0 2.04 0 0 Z " fill="#0C090D" transform="translate(139,324)"/>
<path d="M0 0 C2.97 0.33 5.94 0.66 9 1 C8.01 1.495 8.01 1.495 7 2 C8.32 2.66 9.64 3.32 11 4 C10.01 4.495 10.01 4.495 9 5 C9.33 5.66 9.66 6.32 10 7 C8.02 7 6.04 7 4 7 C4.33 6.01 4.66 5.02 5 4 C3.35 2.68 1.7 1.36 0 0 Z " fill="#4A4545" transform="translate(218,179)"/>
<path d="M0 0 C2.97 0.33 5.94 0.66 9 1 C8.01 1.495 8.01 1.495 7 2 C8.32 2.66 9.64 3.32 11 4 C10.01 4.495 10.01 4.495 9 5 C9.33 5.66 9.66 6.32 10 7 C8.02 7 6.04 7 4 7 C4.33 6.01 4.66 5.02 5 4 C3.35 2.68 1.7 1.36 0 0 Z " fill="#4A4545" transform="translate(125,179)"/>
<path d="M0 0 C2.66666667 1.33333333 5.33333333 2.66666667 8 4 C7.67 5.65 7.34 7.3 7 9 C6.67 8.34 6.34 7.68 6 7 C5.34 7 4.68 7 4 7 C3.67 8.32 3.34 9.64 3 11 C2.87625 9.9275 2.7525 8.855 2.625 7.75 C2.10356064 4.62136385 1.59911746 2.66519576 0 0 Z " fill="#1B0723" transform="translate(150,318)"/>
<path d="M0 0 C0.66 0.33 1.32 0.66 2 1 C0.69118353 2.66956087 -0.62214826 4.33558304 -1.9375 6 C-2.66839844 6.928125 -3.39929688 7.85625 -4.15234375 8.8125 C-4.76207031 9.534375 -5.37179688 10.25625 -6 11 C-6.33 11 -6.66 11 -7 11 C-7 8.03 -7 5.06 -7 2 C-6.67 3.32 -6.34 4.64 -6 6 C-5.195625 5.195625 -4.39125 4.39125 -3.5625 3.5625 C-2.375 2.375 -1.1875 1.1875 0 0 Z " fill="#16041E" transform="translate(203,315)"/>
<path d="M0 0 C0.99 0.33 1.98 0.66 3 1 C2.09515208 2.15518918 1.1755794 3.29885406 0.25 4.4375 C-0.26046875 5.07558594 -0.7709375 5.71367187 -1.296875 6.37109375 C-3.19667629 8.18810554 -4.43586908 8.60423197 -7 9 C-7.33 8.34 -7.66 7.68 -8 7 C-7.05125 6.401875 -6.1025 5.80375 -5.125 5.1875 C-1.86035803 3.18437474 -1.86035803 3.18437474 0 0 Z " fill="#110716" transform="translate(240,335)"/>
<path d="M0 0 C0.99 0.33 1.98 0.66 3 1 C2.09515208 2.15518918 1.1755794 3.29885406 0.25 4.4375 C-0.26046875 5.07558594 -0.7709375 5.71367187 -1.296875 6.37109375 C-3.19667629 8.18810554 -4.43586908 8.60423197 -7 9 C-7.33 8.34 -7.66 7.68 -8 7 C-7.05125 6.401875 -6.1025 5.80375 -5.125 5.1875 C-1.86035803 3.18437474 -1.86035803 3.18437474 0 0 Z " fill="#110716" transform="translate(183,335)"/>
<path d="M0 0 C0.33 0 0.66 0 1 0 C1.56905158 12.03438713 1.56905158 12.03438713 -2 16 C-2.99 16.33 -3.98 16.66 -5 17 C-3.16504854 12.2815534 -3.16504854 12.2815534 -1.9375 10.1875 C-0.51539981 6.86926622 -0.35851435 3.58514351 0 0 Z " fill="#BD3333" transform="translate(278,62)"/>
<path d="M0 0 C0 3.2002215 -0.63242392 5.61483471 -1.5 8.6875 C-1.7784375 9.68136719 -2.056875 10.67523438 -2.34375 11.69921875 C-2.5603125 12.45847656 -2.776875 13.21773437 -3 14 C-3.33 14 -3.66 14 -4 14 C-4.02708567 12.39592672 -4.04643483 10.7917215 -4.0625 9.1875 C-4.07410156 8.29417969 -4.08570313 7.40085937 -4.09765625 6.48046875 C-4 4 -4 4 -3 1 C-2.01 0.67 -1.02 0.34 0 0 Z " fill="#9F2F2F" transform="translate(249,54)"/>
<path d="M0 0 C3 1 3 1 4.1875 3.0625 C4.455625 3.701875 4.72375 4.34125 5 5 C1.25 8 1.25 8 -1 8 C-1.04241723 5.66705225 -1.04092937 3.33297433 -1 1 C-0.67 0.67 -0.34 0.34 0 0 Z " fill="#1E0A27" transform="translate(197,335)"/>
<path d="M0 0 C0.66 0 1.32 0 2 0 C2 3.96 2 7.92 2 12 C1.67 10.68 1.34 9.36 1 8 C0.01 7.67 -0.98 7.34 -2 7 C-1.34 4.69 -0.68 2.38 0 0 Z " fill="#030204" transform="translate(154,325)"/>
<path d="M0 0 C0.99 0.33 1.98 0.66 3 1 C3.33 2.65 3.66 4.3 4 6 C2.68 6.33 1.36 6.66 0 7 C-0.66 5.35 -1.32 3.7 -2 2 C-1.34 2 -0.68 2 0 2 C0 1.34 0 0.68 0 0 Z " fill="#150B19" transform="translate(211,332)"/>
<path d="M0 0 C2.64 0.33 5.28 0.66 8 1 C7.01 1.495 7.01 1.495 6 2 C6 2.66 6 3.32 6 4 C4.35 4 2.7 4 1 4 C0.67 2.68 0.34 1.36 0 0 Z " fill="#3A3535" transform="translate(253,173)"/>
<path d="M0 0 C2.64 0.33 5.28 0.66 8 1 C7.01 1.495 7.01 1.495 6 2 C6 2.66 6 3.32 6 4 C4.35 4 2.7 4 1 4 C0.67 2.68 0.34 1.36 0 0 Z " fill="#3A3535" transform="translate(160,173)"/>
<path d="M0 0 C-0.33 1.98 -0.66 3.96 -1 6 C-2.32 6 -3.64 6 -5 6 C-5.33 4.35 -5.66 2.7 -6 1 C-3.92446352 0.4465236 -2.15634036 0 0 0 Z " fill="#3D3838" transform="translate(270,170)"/>
<path d="M0 0 C-0.33 1.98 -0.66 3.96 -1 6 C-2.32 6 -3.64 6 -5 6 C-5.33 4.35 -5.66 2.7 -6 1 C-3.92446352 0.4465236 -2.15634036 0 0 0 Z " fill="#3D3838" transform="translate(177,170)"/>
<path d="M0 0 C4.28806873 0.47645208 6.26647487 1.65902484 9 5 C9 5.66 9 6.32 9 7 C5.18315774 5.44499019 2.80804268 2.96404505 0 0 Z " fill="#100614" transform="translate(233,317)"/>
<path d="M0 0 C4.28806873 0.47645208 6.26647487 1.65902484 9 5 C9 5.66 9 6.32 9 7 C5.18315774 5.44499019 2.80804268 2.96404505 0 0 Z " fill="#100614" transform="translate(176,317)"/>
<path d="M0 0 C1.65 0 3.3 0 5 0 C4.67 1.65 4.34 3.3 4 5 C2.68 4.67 1.36 4.34 0 4 C0 2.68 0 1.36 0 0 Z " fill="#342F2F" transform="translate(232,142)"/>
<path d="M0 0 C1.65 0 3.3 0 5 0 C4.67 1.65 4.34 3.3 4 5 C2.68 4.67 1.36 4.34 0 4 C0 2.68 0 1.36 0 0 Z " fill="#342F2F" transform="translate(139,142)"/>
<path d="M0 0 C0.66 0.33 1.32 0.66 2 1 C0.515 3.475 0.515 3.475 -1 6 C-1.33 5.34 -1.66 4.68 -2 4 C-2.99 3.67 -3.98 3.34 -5 3 C-2.625 1.4375 -2.625 1.4375 0 0 Z " fill="#2E2828" transform="translate(252,157)"/>
<path d="M0 0 C0.66 0.33 1.32 0.66 2 1 C0.515 3.475 0.515 3.475 -1 6 C-1.33 5.34 -1.66 4.68 -2 4 C-2.99 3.67 -3.98 3.34 -5 3 C-2.625 1.4375 -2.625 1.4375 0 0 Z " fill="#2E2828" transform="translate(159,157)"/>
<path d="M0 0 C0.33 0 0.66 0 1 0 C1 2.64 1 5.28 1 8 C-0.32 6.68 -1.64 5.36 -3 4 C-2.02727325 2.64664105 -1.0260734 1.31337396 0 0 Z " fill="#393939" transform="translate(210,326)"/>
<path d="M0 0 C1.65 0 3.3 0 5 0 C3.35 1.98 1.7 3.96 0 6 C-1.125 2.25 -1.125 2.25 0 0 Z " fill="#5C5959" transform="translate(276,133)"/>
<path d="M0 0 C1.65 0 3.3 0 5 0 C3.35 1.98 1.7 3.96 0 6 C-1.125 2.25 -1.125 2.25 0 0 Z " fill="#5C5959" transform="translate(183,133)"/>
<path d="M0 0 C0.99 1.32 1.98 2.64 3 4 C2 5 2 5 -0.5625 5.0625 C-1.7690625 5.0315625 -1.7690625 5.0315625 -3 5 C-3 4.01 -3 3.02 -3 2 C-2.01 1.34 -1.02 0.68 0 0 Z " fill="#342F2F" transform="translate(234,181)"/>
<path d="M0 0 C0.99 1.32 1.98 2.64 3 4 C2 5 2 5 -0.5625 5.0625 C-1.7690625 5.0315625 -1.7690625 5.0315625 -3 5 C-3 4.01 -3 3.02 -3 2 C-2.01 1.34 -1.02 0.68 0 0 Z " fill="#342F2F" transform="translate(141,181)"/>
<path d="M0 0 C1.65 0 3.3 0 5 0 C5.33 1.98 5.66 3.96 6 6 C3.97945196 4.35830472 1.97956942 2.69088222 0 1 C0 0.67 0 0.34 0 0 Z " fill="#5E5B5B" transform="translate(209,133)"/>
<path d="M0 0 C1.65 0 3.3 0 5 0 C5.33 1.98 5.66 3.96 6 6 C3.97945196 4.35830472 1.97956942 2.69088222 0 1 C0 0.67 0 0.34 0 0 Z " fill="#5E5B5B" transform="translate(116,133)"/>
<path d="M0 0 C1.32 0.33 2.64 0.66 4 1 C3.67 2.32 3.34 3.64 3 5 C2.01 5 1.02 5 0 5 C0 3.35 0 1.7 0 0 Z " fill="#5D5D5D" transform="translate(156,59)"/>
</svg>
